Coordinates
version=1
nRows=33
nColumns=33
inDegrees=yes

Units are S.I. units (second, meters, Newtons, ...)
Angles are in degrees.

endheader
time	ground_thorax_rot_x	ground_thorax_rot_y	ground_thorax_rot_z	ground_thorax_tx	ground_thorax_ty	ground_thorax_tz	clav_prot_r	clav_elev_r	scapula_abduction_r	scapula_elevation_r	scapula_upward_rot_r	scapula_winging_r	shoulder_elv_r	plane_of_elev_r	axial_rot_r	elbow_flexion_r	pro_sup_r	wrist_flex_r	wrist_dev_r	clav_prot_l	clav_elev_l	scapula_abduction_l	scapula_elevation_l	scapula_upward_rot_l	scapula_winging_l	shoulder_elv_l	plane_of_elev_l	axial_rot_l	elbow_flexion_l	pro_sup_l	wrist_flex_l	wrist_dev_l	
4.0200	0.410321	-0.405406	13.337905	-0.118155	1.029866	0.013813	9.368466	-7.454600	16.957830	-1.182901	1.429328	-4.541566	-53.811381	-71.180747	87.810473	-58.564894	-134.353544	51.103138	-25.000000	6.870447	0.522516	-6.239304	-22.001082	-34.041596	-3.827773	52.562845	-38.051092	1.292565	58.981870	30.759135	-5.790152	-25.000000	
4.0300	0.284349	-0.303106	13.279037	-0.118047	1.029994	0.013797	9.094062	-7.751538	16.493675	-1.443000	1.408749	-4.253350	-53.745062	-71.123869	87.591840	-58.312766	-134.301419	52.188818	-25.000000	6.875583	0.480001	-6.247688	-21.932289	-33.989386	-3.808109	52.745745	-38.057724	1.049306	58.816766	30.192772	-5.809751	-25.000000	
4.0400	0.216680	-0.262608	13.258653	-0.118023	1.029946	0.013738	8.944344	-7.916396	16.241199	-1.588134	1.398908	-4.095473	-53.709548	-71.071947	87.479761	-58.184895	-134.275212	52.771658	-25.000000	6.877342	0.447066	-6.253460	-21.888820	-33.968919	-3.796796	52.835319	-38.053309	0.905330	58.718584	29.895952	-5.820480	-25.000000	
4.0500	0.144148	-0.215592	13.247139	-0.117993	1.029957	0.013703	8.783389	-8.094091	15.971583	-1.745921	1.391772	-3.926336	-53.662777	-71.020264	87.354087	-58.052767	-134.249282	53.404796	-25.000000	6.883685	0.412915	-6.265695	-21.837900	-33.936007	-3.780570	52.946059	-38.041198	0.748939	58.613341	29.577971	-5.834944	-25.000000	
4.0600	0.093043	-0.187686	13.254624	-0.117993	1.029938	0.013676	8.668394	-8.225158	15.780027	-1.863063	1.388358	-3.804480	-53.615893	-70.964435	87.262229	-57.975326	-134.236950	53.862821	-25.000000	6.894201	0.379911	-6.285861	-21.790209	-33.907619	-3.762616	53.036916	-38.016988	0.618746	58.522297	29.365782	-5.850426	-25.000000	
4.0700	0.062211	-0.177526	13.278690	-0.118016	1.029890	0.013654	8.596821	-8.311779	15.661842	-1.941140	1.387631	-3.727224	-53.568520	-70.907494	87.201815	-57.948586	-134.236769	54.155957	-25.000000	6.908912	0.349164	-6.313949	-21.746598	-33.883278	-3.742991	53.110695	-37.982164	0.513522	58.447471	29.253326	-5.867347	-25.000000	
4.0800	0.048167	-0.181109	13.313128	-0.118053	1.029813	0.013636	8.561534	-8.361293	15.603949	-1.985783	1.387168	-3.686779	-53.519327	-70.851149	87.166961	-57.964060	-134.246272	54.313378	-25.000000	6.927929	0.321037	-6.350041	-21.707536	-33.863147	-3.721694	53.172822	-37.939750	0.427031	58.387030	29.225256	-5.886553	-25.000000	
4.0900	0.047963	-0.196301	13.353467	-0.118094	1.029698	0.013611	8.556224	-8.379415	15.594856	-2.001306	1.384889	-3.676534	-53.470041	-70.803204	87.154559	-58.011810	-134.260717	54.357251	-25.000000	6.950066	0.297998	-6.392224	-21.676723	-33.849657	-3.699918	53.225943	-37.894978	0.356361	58.349580	29.266928	-5.908425	-25.000000	
4.1000	0.047347	-0.207706	13.388059	-0.118123	1.029584	0.013594	8.551134	-8.398446	15.582729	-2.014697	1.375453	-3.664416	-53.411571	-70.762770	87.140196	-58.064028	-134.273740	54.409606	-25.000000	6.977158	0.277306	-6.443782	-21.648927	-33.837821	-3.674912	53.295457	-37.850913	0.272697	58.319359	29.317614	-5.937072	-25.000000	
4.1100	0.046151	-0.208996	13.413119	-0.118145	1.029457	0.013582	8.545865	-8.422413	15.561269	-2.024594	1.346887	-3.646006	-53.334930	-70.730116	87.124331	-58.126658	-134.282817	54.483150	-25.000000	7.013577	0.257642	-6.514109	-21.626726	-33.836239	-3.644341	53.394568	-37.806851	0.152193	58.306007	29.391121	-5.981006	-25.000000	
4.1200	0.043256	-0.201857	13.428567	-0.118158	1.029321	0.013578	8.538676	-8.452302	15.527850	-2.032162	1.299807	-3.619887	-53.243199	-70.707323	87.111716	-58.198027	-134.288322	54.576145	-25.000000	7.057949	0.237706	-6.601177	-21.610323	-33.847872	-3.609441	53.522039	-37.763456	0.000172	58.308389	29.485169	-6.040775	-25.000000	
4.1300	0.036026	-0.188330	13.434100	-0.118161	1.029179	0.013579	8.527995	-8.491934	15.480145	-2.040964	1.234457	-3.583900	-53.139940	-70.701087	87.111648	-58.279766	-134.289705	54.690105	-25.000000	7.110929	0.216489	-6.706854	-21.601233	-33.878121	-3.570531	53.680534	-37.722399	-0.183220	58.327797	29.600114	-6.119126	-25.000000	
4.1400	0.022894	-0.172985	13.433364	-0.118145	1.029052	0.013585	8.506766	-8.541784	15.409563	-2.054488	1.157811	-3.534740	-53.030260	-70.717577	87.133177	-58.365157	-134.290294	54.815291	-25.000000	7.166300	0.190386	-6.821390	-21.598378	-33.931548	-3.531907	53.866048	-37.682635	-0.371749	58.360684	29.724513	-6.216785	-25.000000	
4.1500	0.004114	-0.153339	13.427740	-0.118105	1.028941	0.013592	8.470911	-8.603838	15.308183	-2.073717	1.067967	-3.468596	-52.910249	-70.759788	87.179524	-58.454501	-134.290908	54.953021	-25.000000	7.222979	0.157106	-6.943932	-21.602292	-34.014108	-3.494678	54.083497	-37.641822	-0.563504	58.413230	29.859161	-6.338956	-25.000000	
4.1600	-0.024434	-0.118605	13.420346	-0.118021	1.028871	0.013600	8.390677	-8.693911	15.117877	-2.106346	0.948311	-3.356327	-52.748910	-70.851093	87.274948	-58.549367	-134.295893	55.118185	-25.000000	7.276812	0.100032	-7.077357	-21.618493	-34.171365	-3.463551	54.380655	-37.591107	-0.753115	58.509210	30.017980	-6.524253	-25.000000	
4.1700	-0.059712	-0.072142	13.411502	-0.117898	1.028831	0.013608	8.275307	-8.805521	14.858041	-2.149779	0.807103	-3.208316	-52.556132	-70.983091	87.410417	-58.651240	-134.305000	55.303399	-25.000000	7.327685	0.025466	-7.217771	-21.645410	-34.387015	-3.437884	54.737486	-37.531426	-0.936985	58.647680	30.192420	-6.759731	-25.000000	
4.1800	-0.097660	-0.016254	13.402816	-0.117741	1.028818	0.013619	8.132487	-8.929908	14.544977	-2.199130	0.651754	-3.034320	-52.339383	-71.143666	87.572870	-58.758193	-134.319070	55.498816	-25.000000	7.373233	-0.061723	-7.357499	-21.679814	-34.643891	-3.418128	55.133115	-37.461720	-1.105691	58.826465	30.372140	-7.032217	-25.000000	
4.1900	-0.129392	0.034209	13.389461	-0.117573	1.028786	0.013623	8.001235	-9.041466	14.258025	-2.242812	0.511029	-2.875939	-52.143557	-71.306640	87.731281	-58.875292	-134.335114	55.677317	-25.000000	7.415140	-0.134787	-7.484704	-21.717443	-34.877840	-3.400914	55.490844	-37.389672	-1.248537	59.042781	30.524997	-7.290595	-25.000000	
4.2000	-0.154859	0.076194	13.373249	-0.117397	1.028734	0.013623	7.885213	-9.136878	14.004952	-2.279187	0.388181	-2.737515	-51.974331	-71.468125	87.881895	-59.001778	-134.353222	55.833575	-25.000000	7.452297	-0.192346	-7.595904	-21.756432	-35.081931	-3.386543	55.802174	-37.317259	-1.357290	59.292543	30.645298	-7.528634	-25.000000	
4.2100	-0.169738	0.091017	13.353784	-0.117221	1.028630	0.013603	7.812126	-9.194349	13.845996	-2.300188	0.311912	-2.651818	-51.876264	-71.616400	88.007213	-59.138575	-134.371571	55.935466	-25.000000	7.480530	-0.213645	-7.672363	-21.794605	-35.208064	-3.376574	56.000853	-37.257012	-1.393483	59.577431	30.694201	-7.704422	-25.000000	
4.2200	-0.175463	0.083938	13.337056	-0.117042	1.028504	0.013582	7.773302	-9.219880	13.760841	-2.306327	0.270204	-2.608093	-51.832458	-71.746255	88.105603	-59.281821	-134.392387	55.988788	-25.000000	7.499202	-0.211159	-7.717206	-21.826780	-35.271326	-3.370920	56.109363	-37.207023	-1.359678	59.877787	30.682724	-7.828386	-25.000000	
4.2300	-0.172225	0.059841	13.318517	-0.116857	1.028344	0.013553	7.760692	-9.219919	13.730855	-2.299041	0.252378	-2.596226	-51.829030	-71.870703	88.186538	-59.449812	-134.420611	56.000065	-25.000000	7.508614	-0.191575	-7.735621	-21.855900	-35.291873	-3.370239	56.145700	-37.164228	-1.249477	60.219579	30.612181	-7.919623	-25.000000	
4.2400	-0.167018	0.037073	13.302762	-0.116662	1.028205	0.013544	7.742008	-9.223289	13.682530	-2.287667	0.217502	-2.575189	-51.811015	-72.005642	88.272907	-59.652442	-134.463281	56.002061	-25.000000	7.513855	-0.187283	-7.752640	-21.880683	-35.334973	-3.372207	56.193473	-37.118502	-1.092085	60.590961	30.522643	-8.030791	-25.000000	
4.2500	-0.156766	0.016597	13.288029	-0.116463	1.028081	0.013546	7.716382	-9.233940	13.609961	-2.271609	0.155605	-2.540710	-51.771530	-72.163776	88.367700	-59.906549	-134.530746	55.985061	-25.000000	7.516767	-0.203293	-7.774731	-21.902014	-35.413118	-3.375824	56.255880	-37.063981	-0.881487	61.001282	30.406323	-8.168571	-25.000000	
4.2600	-0.142006	-0.001651	13.280168	-0.116270	1.028006	0.013575	7.685436	-9.254036	13.514493	-2.251381	0.063257	-2.492291	-51.708843	-72.338034	88.465572	-60.206411	-134.627905	55.940267	-25.000000	7.520543	-0.244016	-7.808170	-21.914717	-35.525086	-3.377737	56.337413	-36.996992	-0.630500	61.412892	30.267047	-8.324198	-25.000000	
4.2700	-0.117074	-0.016349	13.277902	-0.116104	1.027964	0.013614	7.648685	-9.294405	13.380508	-2.222935	-0.092772	-2.418130	-51.614079	-72.568493	88.573173	-60.599930	-134.788348	55.831320	-25.000000	7.533089	-0.317177	-7.874559	-21.925590	-35.701967	-3.374063	56.446334	-36.902293	-0.338402	61.839238	30.087126	-8.509967	-25.000000	
4.2800	-0.090441	-0.024385	13.282261	-0.115956	1.027964	0.013678	7.606524	-9.345128	13.218713	-2.186617	-0.289908	-2.327463	-51.498634	-72.823246	88.682495	-61.064908	-135.003734	55.667926	-25.000000	7.554536	-0.410151	-7.967248	-21.933980	-35.916028	-3.363827	56.581922	-36.784522	-0.027862	62.257430	29.881482	-8.706478	-24.999999	
4.2900	-0.064199	-0.022491	13.288176	-0.115820	1.027981	0.013760	7.559837	-9.398030	13.039324	-2.143211	-0.508491	-2.228260	-51.372287	-73.089972	88.790121	-61.589365	-135.270529	55.459360	-25.000000	7.585004	-0.510108	-8.080882	-21.943145	-36.147243	-3.347279	56.738769	-36.645011	0.283487	62.678925	29.658420	-8.900787	-24.999999	
4.3000	-0.048458	-0.010132	13.289842	-0.115678	1.027999	0.013873	7.511731	-9.433671	12.873581	-2.099328	-0.690553	-2.142905	-51.259174	-73.315492	88.889774	-62.116301	-135.552527	55.253022	-24.999999	7.619267	-0.593183	-8.191891	-21.950530	-36.339851	-3.326810	56.903948	-36.501382	0.567903	63.099263	29.445977	-9.061283	-24.999998	
4.3100	-0.038046	0.008677	13.287622	-0.115533	1.028003	0.014005	7.464296	-9.453907	12.724352	-2.056017	-0.837774	-2.071424	-51.160536	-73.513870	88.986852	-62.646149	-135.860748	55.047472	-24.999999	7.658025	-0.663643	-8.303491	-21.955324	-36.501128	-3.301997	57.074623	-36.357450	0.827792	63.531211	29.237734	-9.181323	-24.999997	
4.3200	-0.037507	0.031953	13.278531	-0.115375	1.027982	0.014156	7.420273	-9.450203	12.610665	-2.018763	-0.918496	-2.026102	-51.086890	-73.656571	89.083135	-63.142148	-136.171091	54.877210	-24.999998	7.696933	-0.713309	-8.401371	-21.953111	-36.604266	-3.274615	57.242826	-36.227180	1.056276	63.977975	29.045118	-9.242690	-24.999995	
4.3300	-0.035100	0.054095	13.277084	-0.115222	1.027954	0.014319	7.380187	-9.436824	12.516183	-1.984159	-0.971780	-1.993134	-51.021744	-73.782679	89.194475	-63.623320	-136.540414	54.703088	-24.999997	7.742080	-0.770568	-8.510222	-21.939213	-36.699527	-3.240357	57.418351	-36.111853	1.271202	64.439449	28.834357	-9.232762	-24.999991	
4.3400	-0.031047	0.077047	13.277334	-0.115081	1.027929	0.014493	7.346707	-9.421082	12.442695	-1.955973	-1.004561	-1.970130	-50.957516	-73.891732	89.317808	-64.090317	-136.948070	54.532229	-24.999995	7.794084	-0.837104	-8.630780	-21.910986	-36.784901	-3.198306	57.602671	-36.000924	1.470191	64.901915	28.607037	-9.157826	-24.999985	
